<?xml version="1.0" encoding="utf-8"?>
<!-- Generator: Adobe Illustrator 24.1.1, SVG Export Plug-In . SVG Version: 6.00 Build 0)  -->
<svg version="1.1" id="Layer_1" xmlns="http://www.w3.org/2000/svg" xmlns:xlink="http://www.w3.org/1999/xlink" x="0px" y="0px"
	 viewBox="0 0 512 512" style="enable-background:new 0 0 512 512;" xml:space="preserve">
<style type="text/css">
	.st0{fill-rule:evenodd;clip-rule:evenodd;}
</style>
<g>
	<path class="st0" d="M256,112c8.8,0,16,7.2,16,16v128c0,8.8-7.2,16-16,16H128c-8.8,0-16-7.2-16-16c0-8.8,7.2-16,16-16h112V128
		C240,119.2,247.2,112,256,112z"/>
	<path class="st0" d="M240,256c0-8.8,7.2-16,16-16h128c8.8,0,16,7.2,16,16c0,8.8-7.2,16-16,16H272v112c0,8.8-7.2,16-16,16
		c-8.8,0-16-7.2-16-16V256z"/>
	<path class="st0" d="M256,480c123.7,0,224-100.3,224-224S379.7,32,256,32S32,132.3,32,256S132.3,480,256,480z M256,512
		c141.4,0,256-114.6,256-256S397.4,0,256,0S0,114.6,0,256S114.6,512,256,512z"/>
</g>
</svg>
